<?xml version="1.0" standalone="no"?>
<!DOCTYPE svg PUBLIC "-//W3C//DTD SVG 20010904//EN"
 "http://www.w3.org/TR/2001/REC-SVG-20010904/DTD/svg10.dtd">
<svg version="1.0" xmlns="http://www.w3.org/2000/svg"
 width="70.000000pt" height="70.000000pt" viewBox="0 0 70.000000 70.000000"
 preserveAspectRatio="xMidYMid meet">
<metadata>
Created by potrace 1.11, written by Peter Selinger 2001-2013
</metadata>
<g transform="translate(0.000000,70.000000) scale(0.100000,-0.100000)"
fill="#000000" stroke="none">
<path d="M232 662 c-141 -51 -231 -190 -220 -337 10 -117 80 -220 187 -272 48
-24 68 -28 141 -28 73 0 93 4 141 28 66 32 132 99 162 165 34 73 31 198 -6
273 -32 67 -100 132 -165 162 -66 29 -172 33 -240 9z m242 -46 c105 -51 161
-144 161 -266 0 -85 -21 -142 -74 -203 -82 -92 -237 -121 -353 -64 -160 79
-215 278 -118 430 80 126 246 170 384 103z"/>
<path d="M160 382 c25 -50 40 -92 40 -115 0 -30 4 -37 20 -37 17 0 20 7 20 40
0 29 12 63 41 115 l41 75 -30 0 c-24 0 -32 -7 -47 -40 -10 -22 -21 -40 -25
-40 -4 0 -15 18 -25 40 -15 33 -23 40 -47 40 l-29 0 41 -78z"/>
<path d="M405 448 c-2 -7 -20 -57 -40 -112 -19 -54 -35 -100 -35 -102 0 -2 11
-4 26 -4 19 0 28 7 35 30 10 26 16 30 49 30 33 0 39 -4 49 -30 8 -23 16 -30
36 -30 30 0 31 -8 -20 135 -31 85 -34 90 -64 93 -19 2 -33 -2 -36 -10z m52
-83 c11 -34 11 -35 -17 -35 -28 0 -28 1 -17 35 6 19 13 35 17 35 4 0 11 -16
17 -35z"/>
</g>
</svg>
